<svg width="23" height="30" viewBox="0 0 23 30" fill="none" xmlns="http://www.w3.org/2000/svg">
<path d="M21.0938 3.75C21.8704 3.75 22.5 3.12041 22.5 2.34375V1.40625C22.5 0.62959 21.8704 0 21.0938 0H1.40625C0.62959 0 0 0.62959 0 1.40625V2.34375C0 3.12041 0.62959 3.75 1.40625 3.75C1.40625 9.07998 4.39547 13.5782 8.48684 15C4.39547 16.4218 1.40625 20.92 1.40625 26.25C0.62959 26.25 0 26.8796 0 27.6562V28.5938C0 29.3704 0.62959 30 1.40625 30H21.0938C21.8704 30 22.5 29.3704 22.5 28.5938V27.6562C22.5 26.8796 21.8704 26.25 21.0938 26.25C21.0938 20.92 18.1045 16.4218 14.0132 15C18.1045 13.5782 21.0938 9.07998 21.0938 3.75ZM11.25 12.1875C7.86404 12.1875 5.15625 8.28996 5.15625 3.75H17.3438C17.3438 8.31709 14.6186 12.1875 11.25 12.1875Z" fill="#467CF6"/>
</svg>
