<svg width="30" height="30" viewBox="0 0 30 30" fill="none" xmlns="http://www.w3.org/2000/svg">
<path d="M13.6319 13.6312C12.8758 14.3873 12.8758 15.6127 13.6319 16.3681C14.3873 17.1242 15.6133 17.1242 16.3687 16.3681C17.1248 15.6121 17.1248 14.3867 16.3687 13.6312C15.6127 12.8758 14.3873 12.8758 13.6319 13.6312ZM15 0C6.71552 0 0 6.71552 0 15C0 23.2845 6.71552 30 15 30C23.2845 30 30 23.2845 30 15C30 6.71552 23.2845 0 15 0ZM22.6294 8.95464L18.6393 17.6855C18.4463 18.1077 18.1077 18.4463 17.6855 18.6393L8.95524 22.6294C7.94818 23.0897 6.91028 22.0518 7.37056 21.0448L11.3613 12.3139C11.5543 11.8917 11.8929 11.5531 12.3151 11.3601L21.0454 7.36996C22.0524 6.91028 23.0897 7.94758 22.6294 8.95464Z" fill="#467CF6"/>
</svg>
