<svg width="30" height="30" viewBox="0 0 30 30" fill="none" xmlns="http://www.w3.org/2000/svg">
<path d="M28.3594 0H23.7305C23.1035 0 22.793 0.755859 23.2324 1.20117L24.2227 2.19141L19.4941 6.91992C18.1934 6.09961 16.6523 5.625 15 5.625C13.3477 5.625 11.8066 6.09961 10.5059 6.91992L9.53906 5.95312L10.6992 4.79297C10.9746 4.51758 10.9746 4.07227 10.6992 3.79688L9.04102 2.13867C8.76562 1.86328 8.32031 1.86328 8.04492 2.13867L6.88477 3.29883L5.77148 2.18555L6.76172 1.19531C7.21289 0.755859 6.89648 0 6.26953 0H1.64062C1.25391 0 0.9375 0.316406 0.9375 0.703125V5.33203C0.9375 5.95898 1.69336 6.26953 2.13867 5.83008L3.12891 4.83984L4.24219 5.95312L3.08203 7.11328C2.80664 7.38867 2.80664 7.83398 3.08203 8.10938L4.74023 9.76758C5.01562 10.043 5.46094 10.043 5.73633 9.76758L6.89648 8.60742L7.86328 9.57422C7.03711 10.8691 6.5625 12.4102 6.5625 14.0625C6.5625 18.0762 9.36914 21.4395 13.125 22.2891V23.9062H11.0156C10.6289 23.9062 10.3125 24.2227 10.3125 24.6094V26.9531C10.3125 27.3398 10.6289 27.6562 11.0156 27.6562H13.125V29.2969C13.125 29.6836 13.4414 30 13.8281 30H16.1719C16.5586 30 16.875 29.6836 16.875 29.2969V27.6562H18.9844C19.3711 27.6562 19.6875 27.3398 19.6875 26.9531V24.6094C19.6875 24.2227 19.3711 23.9062 18.9844 23.9062H16.875V22.2891C20.6309 21.4336 23.4375 18.0762 23.4375 14.0625C23.4375 12.4102 22.9629 10.8691 22.1426 9.56836L26.8711 4.83984L27.8613 5.83008C28.3066 6.27539 29.0625 5.95898 29.0625 5.33203V0.703125C29.0625 0.316406 28.7461 0 28.3594 0ZM15 18.75C12.416 18.75 10.3125 16.6465 10.3125 14.0625C10.3125 11.4785 12.416 9.375 15 9.375C17.584 9.375 19.6875 11.4785 19.6875 14.0625C19.6875 16.6465 17.584 18.75 15 18.75Z" fill="#467CF6"/>
</svg>
