<svg width="23" height="30" viewBox="0 0 23 30" fill="none" xmlns="http://www.w3.org/2000/svg">
<path d="M22.5 11.25H18.75V9.03047C20.9297 8.25586 22.5 6.1957 22.5 3.75H18.75V1.875C18.75 0.839648 17.9104 0 16.875 0H5.625C4.58965 0 3.75 0.839648 3.75 1.875V3.75H0C0 6.1957 1.57031 8.25586 3.75 9.03047V11.25H0C0 13.6957 1.57031 15.7559 3.75 16.5305V18.75H0C0 21.2602 1.65527 23.3607 3.9252 24.085C4.65352 27.4641 7.65234 30 11.25 30C14.8477 30 17.8465 27.4641 18.5748 24.085C20.8447 23.3607 22.5 21.2602 22.5 18.75H18.75V16.5305C20.9297 15.7559 22.5 13.6957 22.5 11.25ZM11.25 24.375C9.69668 24.375 8.4375 23.1158 8.4375 21.5625C8.4375 20.0092 9.69668 18.75 11.25 18.75C12.8033 18.75 14.0625 20.0092 14.0625 21.5625C14.0625 23.1158 12.8033 24.375 11.25 24.375ZM11.25 16.875C9.69668 16.875 8.4375 15.6158 8.4375 14.0625C8.4375 12.5092 9.69668 11.25 11.25 11.25C12.8033 11.25 14.0625 12.5092 14.0625 14.0625C14.0625 15.6158 12.8033 16.875 11.25 16.875ZM11.25 9.375C9.69668 9.375 8.4375 8.11582 8.4375 6.5625C8.4375 5.00918 9.69668 3.75 11.25 3.75C12.8033 3.75 14.0625 5.00918 14.0625 6.5625C14.0625 8.11582 12.8033 9.375 11.25 9.375Z" fill="#467CF6"/>
</svg>
